<svg width="150" height="150" viewBox="0 0 150 150" fill="none" xmlns="http://www.w3.org/2000/svg">
<circle cx="75" cy="75" r="74.5" fill="white" stroke="#0066FF"/>
<path d="M100.547 68.7694L100.318 69.2139C100.189 69.1471 100.076 69.0514 99.9887 68.9332C99.9018 68.8149 99.8436 68.6776 99.8197 68.5321C99.7958 68.3865 99.8069 68.2375 99.8521 68.0971C99.8972 67.9569 99.9748 67.8299 100.078 67.7258L100.082 67.7216L100.082 67.7216C100.232 67.5728 100.347 67.3948 100.419 67.2003C100.491 67.0064 100.519 66.8002 100.502 66.5954C100.466 66.2294 100.292 65.8869 100.007 65.6366C99.7223 65.3856 99.3487 65.2465 98.9601 65.25L98.9556 65.25L97.0068 65.25C96.9429 65.2504 96.879 65.2545 96.8156 65.2622L96.6833 65.2783L96.5606 65.2264C96.53 65.2135 96.4983 65.2031 96.4658 65.1956L96.2334 65.1415L96.1292 64.9269C94.9632 62.5244 93.4458 59.4328 90.3461 57.9288C87.9977 56.7903 84.6167 56.1769 81.5605 55.8528C78.5191 55.5302 75.8617 55.5 74.9959 55.5C74.13 55.5 71.4726 55.5302 68.4319 55.8523C65.3764 56.176 61.9969 56.7886 59.6516 57.9252C56.5521 59.4292 55.0347 62.5207 53.8688 64.9232L53.8639 64.9332L53.8638 64.9331L53.8538 64.9526L53.7349 65.1844L53.4769 65.2198C53.4537 65.2229 53.4312 65.2285 53.4095 65.2363L53.2978 65.2765L53.1799 65.2622C53.1164 65.2545 53.0526 65.2504 52.9886 65.25H51.0361H51.0316V65.25C50.6431 65.2465 50.2694 65.3856 49.9844 65.6366C49.7007 65.8865 49.5258 66.2283 49.4902 66.5936C49.4745 66.7973 49.5038 67.0021 49.5764 67.1945C49.6495 67.3881 49.765 67.565 49.9158 67.7127L49.9216 67.7184L49.9215 67.7184C50.0244 67.8226 50.102 67.9496 50.1471 68.0898C50.1923 68.2302 50.2034 68.3791 50.1795 68.5248C50.1556 68.6703 50.0974 68.8076 50.0105 68.9259C49.9242 69.0433 49.8121 69.1386 49.6837 69.2052C48.5665 69.7948 47.643 70.2911 47.0842 71.0171L46.6879 70.7121L47.0849 71.0162C47.0805 71.0219 47.0759 71.0279 47.071 71.0342C46.8572 71.3109 46.1524 72.2229 45.7144 77.0022C45.466 79.7559 45.4309 82.5891 45.6224 84.392C46.0289 88.1856 46.79 90.4695 46.8141 90.5408C46.9015 90.7996 47.063 91.0307 47.2818 91.2063C47.5006 91.3819 47.7674 91.4945 48.0515 91.5293L48.4906 91.5832V92.0256V92.05C48.4906 92.4304 48.6455 92.7979 48.9255 93.0708C49.206 93.3442 49.589 93.5 49.9909 93.5H56.992C57.3939 93.5 57.7769 93.3442 58.0574 93.0708C58.3374 92.7979 58.4923 92.4304 58.4923 92.05V91.55H58.9923C60.0014 91.55 60.6986 91.3767 61.4869 91.1782C62.6596 90.8703 63.8583 90.6654 65.0684 90.5659C68.8988 90.2099 72.7062 90.0875 74.9959 90.0875C77.2386 90.0875 81.2134 90.2098 85.0507 90.5659M100.547 68.7694L85.0535 90.5662C85.0526 90.5661 85.0516 90.566 85.0507 90.5659M100.547 68.7694L100.315 69.2123C101.43 69.797 102.351 70.2944 102.916 71.0251L102.916 71.026C102.92 71.031 102.924 71.0361 102.928 71.0415C103.138 71.3096 103.847 72.2161 104.285 77.0096C104.536 79.7675 104.568 82.5958 104.377 84.4003C103.97 88.1958 103.208 90.4801 103.185 90.5494C103.097 90.8086 102.935 91.04 102.716 91.2155C102.496 91.3913 102.229 91.5035 101.944 91.5377L101.504 91.5906V92.0342V92.0488C101.504 92.4292 101.349 92.7966 101.069 93.0696C100.788 93.343 100.405 93.4988 100.003 93.4988H93.0023C92.6003 93.4988 92.2173 93.343 91.9369 93.0696C91.6568 92.7966 91.502 92.4292 91.502 92.0488V91.5578L91.0111 91.5489C90.0739 91.5317 89.3997 91.3691 88.6457 91.1805M100.547 68.7694C100.485 68.7377 100.432 68.6923 100.392 68.6371C100.351 68.5818 100.324 68.5181 100.313 68.451C100.302 68.3839 100.307 68.3151 100.328 68.2503C100.349 68.1854 100.385 68.1262 100.433 68.0772C100.635 67.8776 100.79 67.6377 100.888 67.3741C100.986 67.1105 101.024 66.8294 101 66.5501L88.6457 91.1805M85.0507 90.5659C86.2654 90.6656 87.4685 90.8713 88.6457 91.1805M85.0507 90.5659C85.0498 90.5658 85.049 90.5658 85.0482 90.5657L88.6457 91.1805M56.4534 66.4268C56.3423 66.6556 56.2929 66.9091 56.3105 67.1629C56.3282 67.4167 56.4122 67.6609 56.5535 67.8723C56.6947 68.0837 56.8881 68.2548 57.1143 68.3705C57.3403 68.4863 57.5922 68.5433 57.8461 68.5368L57.8465 68.5368C59.1637 68.5021 60.9332 68.4426 62.872 68.3775C67.0825 68.236 72.0909 68.0677 74.9959 68.0677C77.9343 68.0677 83.0259 68.2359 87.264 68.3758C89.1446 68.4379 90.8571 68.4944 92.1389 68.5283L92.1394 68.5283C92.3932 68.5347 92.6451 68.4778 92.8712 68.362C93.0973 68.2462 93.2908 68.0751 93.432 67.8638C93.5733 67.6524 93.6573 67.4082 93.6749 67.1544C93.6925 66.9015 93.6435 66.649 93.5334 66.4209C93.5329 66.42 93.5325 66.4191 93.532 66.4182L93.4093 66.1585L93.4093 66.1585L93.4071 66.1538L93.3994 66.1379C92.9019 65.1131 92.3522 63.9808 91.666 62.9808C90.9748 61.9736 90.1211 61.0639 88.9956 60.5175C87.4498 59.7646 85.1238 59.2386 82.627 58.8982C80.1171 58.556 77.385 58.3951 74.9959 58.3951C72.6066 58.3951 69.8744 58.5572 67.3646 58.9C64.8678 59.241 62.5422 59.7671 60.9968 60.5172C59.8712 61.0635 59.0161 61.9728 58.324 62.9801C57.6333 63.9854 57.0817 65.1242 56.5842 66.1548L56.584 66.1547L56.5787 66.1665C56.5524 66.2248 56.5252 66.2802 56.4944 66.3428C56.4815 66.3693 56.4679 66.397 56.4534 66.4268ZM56.4534 66.4268L56.9026 66.6449L56.4533 66.4269C56.4534 66.4269 56.4534 66.4268 56.4534 66.4268ZM49.792 72.0557L49.793 72.0555C51.4346 71.8093 52.4346 72.0979 54.7129 72.7555C54.869 72.8005 55.031 72.8473 55.1997 72.8957C57.01 73.4148 58.3379 74.1119 59.1184 74.6861C59.5216 74.9792 59.567 75.466 59.4662 75.8092C59.3649 76.1548 59.0665 76.531 58.576 76.5746C56.4088 76.8286 54.2278 76.9539 52.045 76.95L49.792 72.0557ZM49.792 72.0557C49.4198 72.1123 49.1094 72.2338 48.8847 72.4712C48.6654 72.7029 48.5922 72.9807 48.5492 73.1833C48.4384 73.7011 48.4246 74.2097 48.6115 75.0425M49.792 72.0557L48.6115 75.0425M63.811 86.5678C65.1001 86.711 67.3629 86.7045 71.1403 86.6936C72.2921 86.6903 73.5846 86.6866 75.0334 86.6866C76.482 86.6866 77.7746 86.6903 78.9265 86.6936C82.2123 86.7031 84.3526 86.7092 85.7025 86.6165V86.6409L86.2614 86.5746C87.2029 86.463 88.2451 86.0073 88.8858 85.3315C89.2109 84.9887 89.4616 84.5571 89.4978 84.0582C89.5348 83.5473 89.3411 83.0479 88.9329 82.5954C88.688 82.3201 88.3357 82.0868 87.9304 81.8843C87.5185 81.6786 87.0208 81.4897 86.4577 81.3166C85.3314 80.9703 83.9049 80.6757 82.2965 80.4414C79.0933 79.9749 77.9053 79.85 75.0209 79.85C72.3782 79.85 71.0453 80.0199 68.4995 80.3443C68.2624 80.3745 68.0148 80.4061 67.7546 80.4389C66.2076 80.6345 64.8391 80.9078 63.7238 81.2541C62.6209 81.5965 61.7147 82.0255 61.1401 82.5622L61.1382 82.564C60.6856 82.991 60.4599 83.4874 60.4927 84.0123C60.5243 84.5173 60.7899 84.9556 61.123 85.3005C61.7825 85.9831 62.8609 86.4647 63.811 86.5678ZM63.811 86.5678C63.8108 86.5678 63.8105 86.5678 63.8103 86.5678L63.8655 86.0708L63.8116 86.5679C63.8114 86.5679 63.8112 86.5679 63.811 86.5678ZM48.6115 75.0425C48.7831 75.819 49.3339 76.3038 49.9705 76.5816C50.5964 76.8548 51.3453 76.9499 52.0441 76.95L48.6115 75.0425ZM91.2885 76.5731C93.4986 76.8239 95.7217 76.9493 97.9467 76.9488H97.9468C98.6428 76.9488 99.3928 76.855 100.02 76.5826C100.657 76.3059 101.21 75.8214 101.38 75.0422L101.38 75.0422C101.521 74.4061 101.545 73.7504 101.45 73.1062C101.428 72.9125 101.348 72.6984 101.216 72.5164C101.078 72.3245 100.855 72.1303 100.537 72.0689L100.537 72.0688C99.0838 71.7879 97.4359 72.1351 94.792 72.8945C92.9894 73.4121 91.6412 74.0961 90.864 74.6918L90.8639 74.692C90.4842 74.9833 90.4021 75.4351 90.4767 75.7848C90.5459 76.1093 90.8014 76.5248 91.2885 76.5731Z" fill="#0066FF" stroke="#0066FF"/>
</svg>
